<?xml version="1.0" encoding="UTF-8" standalone="no"?>
<!DOCTYPE svg PUBLIC "-//W3C//DTD SVG 1.1//EN"
 "http://www.w3.org/Graphics/SVG/1.1/DTD/svg11.dtd">
<!-- Title: ObjectGraph Pages: 1 -->
<svg width="369pt" height="302pt"
 viewBox="0.00 0.00 369.23 302.00" xmlns="http://www.w3.org/2000/svg" xmlns:xlink="http://www.w3.org/1999/xlink">
<g id="graph0" class="graph" transform="scale(1 1) rotate(0) translate(4 298)">
<title>ObjectGraph</title>
<polygon fill="white" stroke="none" points="-4,4 -4,-298 365.235,-298 365.235,4 -4,4"/>
<!-- o4337207432 -->
<g id="node1" class="node"><title>o4337207432</title>
<polygon fill="#ffffff" stroke="black" points="197.125,-294 140.462,-294 140.462,-258 197.125,-258 197.125,-294"/>
<text text-anchor="middle" x="168.794" y="-278.8" font-family="Times,serif" font-size="14.00" fill="red">dict</text>
<text text-anchor="middle" x="168.794" y="-264.8" font-family="Times,serif" font-size="14.00" fill="red">7 items</text>
</g>
<!-- o4337207432&#45;&gt;o4337207432 -->
<g id="edge3" class="edge"><title>o4337207432&#45;&gt;o4337207432</title>
<path fill="none" stroke="black" d="M197.349,-283.873C207.23,-283.956 215.209,-281.332 215.209,-276 215.209,-272.667 212.092,-270.393 207.342,-269.175"/>
<polygon fill="black" stroke="black" points="207.659,-265.69 197.349,-268.127 206.929,-272.651 207.659,-265.69"/>
<text text-anchor="middle" x="225.316" y="-271.8" font-family="Times,serif" font-size="14.00">self</text>
</g>
<!-- o4338168240 -->
<g id="node2" class="node"><title>o4338168240</title>
<polygon fill="#c3c3c3" stroke="black" points="161.125,-208 104.462,-208 104.462,-172 161.125,-172 161.125,-208"/>
<text text-anchor="middle" x="132.794" y="-192.8" font-family="Times,serif" font-size="14.00">tuple</text>
<text text-anchor="middle" x="132.794" y="-178.8" font-family="Times,serif" font-size="14.00">3 items</text>
</g>
<!-- o4337207432&#45;&gt;o4338168240 -->
<g id="edge1" class="edge"><title>o4337207432&#45;&gt;o4338168240</title>
<path fill="none" stroke="black" d="M151.047,-257.821C146.539,-252.524 142.177,-246.391 139.352,-240 136.415,-233.354 134.703,-225.746 133.727,-218.538"/>
<polygon fill="black" stroke="black" points="137.196,-218.047 132.767,-208.422 130.228,-218.708 137.196,-218.047"/>
<text text-anchor="middle" x="160.014" y="-228.8" font-family="Times,serif" font-size="14.00">s_tuple</text>
</g>
<!-- o4337207752 -->
<g id="node3" class="node"><title>o4337207752</title>
<polygon fill="#c3c3c3" stroke="black" points="311.125,-208 254.462,-208 254.462,-172 311.125,-172 311.125,-208"/>
<text text-anchor="middle" x="282.794" y="-192.8" font-family="Times,serif" font-size="14.00">dict</text>
<text text-anchor="middle" x="282.794" y="-178.8" font-family="Times,serif" font-size="14.00">1 items</text>
</g>
<!-- o4337207432&#45;&gt;o4337207752 -->
<g id="edge2" class="edge"><title>o4337207432&#45;&gt;o4337207752</title>
<path fill="none" stroke="black" d="M196.381,-257.945C204.976,-252.413 214.398,-246.121 222.794,-240 233.684,-232.06 245.242,-222.828 255.277,-214.532"/>
<polygon fill="black" stroke="black" points="257.522,-217.217 262.956,-208.122 253.036,-211.844 257.522,-217.217"/>
<text text-anchor="middle" x="251.063" y="-228.8" font-family="Times,serif" font-size="14.00">dref</text>
</g>
<!-- o4338154568 -->
<g id="node4" class="node"><title>o4338154568</title>
<polygon fill="#c3c3c3" stroke="black" points="86.1249,-208 29.4623,-208 29.4623,-172 86.1249,-172 86.1249,-208"/>
<text text-anchor="middle" x="57.7936" y="-192.8" font-family="Times,serif" font-size="14.00">list</text>
<text text-anchor="middle" x="57.7936" y="-178.8" font-family="Times,serif" font-size="14.00">3 items</text>
</g>
<!-- o4337207432&#45;&gt;o4338154568 -->
<g id="edge4" class="edge"><title>o4337207432&#45;&gt;o4338154568</title>
<path fill="none" stroke="black" d="M140.276,-262.737C127.974,-256.775 113.788,-248.956 102.228,-240 93.2847,-233.071 84.6443,-224.219 77.398,-215.949"/>
<polygon fill="black" stroke="black" points="80.0432,-213.657 70.9134,-208.281 74.6982,-218.177 80.0432,-213.657"/>
<text text-anchor="middle" x="117.576" y="-228.8" font-family="Times,serif" font-size="14.00">s_list</text>
</g>
<!-- o4297148528 -->
<g id="node5" class="node"><title>o4297148528</title>
<polygon fill="#c3c3c3" stroke="black" points="102.794,-122 48.7936,-122 48.7936,-86 102.794,-86 102.794,-122"/>
<text text-anchor="middle" x="75.7936" y="-106.8" font-family="Times,serif" font-size="14.00">int</text>
<text text-anchor="middle" x="75.7936" y="-92.8" font-family="Times,serif" font-size="14.00">1</text>
</g>
<!-- o4337207432&#45;&gt;o4297148528 -->
<g id="edge5" class="edge"><title>o4337207432&#45;&gt;o4297148528</title>
<path fill="none" stroke="black" d="M140.456,-272.636C102.408,-267.767 36.1164,-252.942 6.01426,-208 -12.3156,-180.634 15.953,-149.322 41.8081,-128.476"/>
<polygon fill="black" stroke="black" points="44.289,-130.982 50.0557,-122.094 40.005,-125.446 44.289,-130.982"/>
<text text-anchor="middle" x="14.1832" y="-185.8" font-family="Times,serif" font-size="14.00">int</text>
</g>
<!-- o4337560712 -->
<g id="node6" class="node"><title>o4337560712</title>
<polygon fill="#c3c3c3" stroke="black" points="236.125,-208 179.462,-208 179.462,-172 236.125,-172 236.125,-208"/>
<text text-anchor="middle" x="207.794" y="-192.8" font-family="Times,serif" font-size="14.00">set</text>
<text text-anchor="middle" x="207.794" y="-178.8" font-family="Times,serif" font-size="14.00">3 items</text>
</g>
<!-- o4337207432&#45;&gt;o4337560712 -->
<g id="edge6" class="edge"><title>o4337207432&#45;&gt;o4337560712</title>
<path fill="none" stroke="black" d="M176.874,-257.595C182.244,-246.03 189.397,-230.624 195.47,-217.543"/>
<polygon fill="black" stroke="black" points="198.82,-218.639 199.857,-208.095 192.471,-215.691 198.82,-218.639"/>
<text text-anchor="middle" x="204.794" y="-228.8" font-family="Times,serif" font-size="14.00">s_set</text>
</g>
<!-- o4337207304 -->
<g id="node7" class="node"><title>o4337207304</title>
<polygon fill="#c3c3c3" stroke="black" points="332.125,-122 275.462,-122 275.462,-86 332.125,-86 332.125,-122"/>
<text text-anchor="middle" x="303.794" y="-106.8" font-family="Times,serif" font-size="14.00">dict</text>
<text text-anchor="middle" x="303.794" y="-92.8" font-family="Times,serif" font-size="14.00">2 items</text>
</g>
<!-- o4337207432&#45;&gt;o4337207304 -->
<g id="edge7" class="edge"><title>o4337207432&#45;&gt;o4337207304</title>
<path fill="none" stroke="black" d="M197.17,-272.25C233.621,-266.969 295.126,-251.71 319.794,-208 333.06,-184.493 325.436,-153.413 316.761,-131.564"/>
<polygon fill="black" stroke="black" points="319.922,-130.055 312.772,-122.236 313.485,-132.807 319.922,-130.055"/>
<text text-anchor="middle" x="344.514" y="-185.8" font-family="Times,serif" font-size="14.00">s_dict</text>
</g>
<!-- o4338168240&#45;&gt;o4297148528 -->
<g id="edge10" class="edge"><title>o4338168240&#45;&gt;o4297148528</title>
<path fill="none" stroke="black" d="M120.983,-171.595C112.905,-159.69 102.064,-143.715 93.026,-130.395"/>
<polygon fill="black" stroke="black" points="95.9051,-128.405 87.3938,-122.095 90.1127,-132.335 95.9051,-128.405"/>
</g>
<!-- o4297148592 -->
<g id="node8" class="node"><title>o4297148592</title>
<polygon fill="#878787" stroke="black" points="174.794,-122 120.794,-122 120.794,-86 174.794,-86 174.794,-122"/>
<text text-anchor="middle" x="147.794" y="-106.8" font-family="Times,serif" font-size="14.00">int</text>
<text text-anchor="middle" x="147.794" y="-92.8" font-family="Times,serif" font-size="14.00">3</text>
</g>
<!-- o4338168240&#45;&gt;o4297148592 -->
<g id="edge8" class="edge"><title>o4338168240&#45;&gt;o4297148592</title>
<path fill="none" stroke="black" d="M135.902,-171.595C137.926,-160.257 140.61,-145.227 142.916,-132.315"/>
<polygon fill="black" stroke="black" points="146.428,-132.555 144.741,-122.095 139.537,-131.324 146.428,-132.555"/>
</g>
<!-- o4297148560 -->
<g id="node9" class="node"><title>o4297148560</title>
<polygon fill="#878787" stroke="black" points="269.794,-36 215.794,-36 215.794,-0 269.794,-0 269.794,-36"/>
<text text-anchor="middle" x="242.794" y="-20.8" font-family="Times,serif" font-size="14.00">int</text>
<text text-anchor="middle" x="242.794" y="-6.8" font-family="Times,serif" font-size="14.00">2</text>
</g>
<!-- o4338168240&#45;&gt;o4297148560 -->
<g id="edge9" class="edge"><title>o4338168240&#45;&gt;o4297148560</title>
<path fill="none" stroke="black" d="M146.858,-171.823C157.479,-158.551 172.162,-139.545 183.794,-122 200.58,-96.6783 217.599,-66.3633 229.015,-45.2032"/>
<polygon fill="black" stroke="black" points="232.214,-46.6445 233.846,-36.1761 226.042,-43.3419 232.214,-46.6445"/>
</g>
<!-- o4337207752&#45;&gt;o4337207304 -->
<g id="edge11" class="edge"><title>o4337207752&#45;&gt;o4337207304</title>
<path fill="none" stroke="black" d="M287.145,-171.595C290.008,-160.144 293.812,-144.926 297.061,-131.929"/>
<polygon fill="black" stroke="black" points="300.49,-132.645 299.52,-122.095 293.699,-130.948 300.49,-132.645"/>
<text text-anchor="middle" x="297.9" y="-142.8" font-family="Times,serif" font-size="14.00">a</text>
</g>
<!-- o4338154568&#45;&gt;o4297148528 -->
<g id="edge14" class="edge"><title>o4338154568&#45;&gt;o4297148528</title>
<path fill="none" stroke="black" d="M61.5232,-171.595C63.977,-160.144 67.238,-144.926 70.0231,-131.929"/>
<polygon fill="black" stroke="black" points="73.4573,-132.607 72.1303,-122.095 66.6126,-131.14 73.4573,-132.607"/>
</g>
<!-- o4338154568&#45;&gt;o4297148592 -->
<g id="edge12" class="edge"><title>o4338154568&#45;&gt;o4297148592</title>
<path fill="none" stroke="black" d="M76.4416,-171.595C89.5613,-159.35 107.295,-142.799 121.801,-129.26"/>
<polygon fill="black" stroke="black" points="124.555,-131.477 129.477,-122.095 119.779,-126.36 124.555,-131.477"/>
</g>
<!-- o4338154568&#45;&gt;o4297148560 -->
<g id="edge13" class="edge"><title>o4338154568&#45;&gt;o4297148560</title>
<path fill="none" stroke="black" d="M47.7399,-171.945C36.2533,-149.981 21.2869,-111.597 39.7936,-86 77.6984,-33.5735 158.105,-21.4788 205.558,-19.0982"/>
<polygon fill="black" stroke="black" points="205.866,-22.589 215.726,-18.7114 205.6,-15.5941 205.866,-22.589"/>
</g>
<!-- o4337560712&#45;&gt;o4297148528 -->
<g id="edge15" class="edge"><title>o4337560712&#45;&gt;o4297148528</title>
<path fill="none" stroke="black" d="M180.763,-171.799C160.742,-159.058 133.269,-141.575 111.45,-127.691"/>
<polygon fill="black" stroke="black" points="113.104,-124.594 102.788,-122.178 109.346,-130.5 113.104,-124.594"/>
</g>
<!-- o4337560712&#45;&gt;o4297148592 -->
<g id="edge17" class="edge"><title>o4337560712&#45;&gt;o4297148592</title>
<path fill="none" stroke="black" d="M198.162,-171.788C192.571,-162.192 185.188,-150.163 177.794,-140 175.304,-136.578 172.563,-133.077 169.781,-129.675"/>
<polygon fill="black" stroke="black" points="172.433,-127.391 163.312,-122.001 167.081,-131.903 172.433,-127.391"/>
</g>
<!-- o4337560712&#45;&gt;o4297148560 -->
<g id="edge16" class="edge"><title>o4337560712&#45;&gt;o4297148560</title>
<path fill="none" stroke="black" d="M211.342,-171.764C217.437,-142.159 229.94,-81.4326 237.212,-46.1122"/>
<polygon fill="black" stroke="black" points="240.699,-46.5293 239.288,-36.0289 233.843,-45.1177 240.699,-46.5293"/>
</g>
<!-- o4337207304&#45;&gt;o4337207752 -->
<g id="edge19" class="edge"><title>o4337207304&#45;&gt;o4337207752</title>
<path fill="none" stroke="black" d="M290.295,-122.235C286.832,-127.625 283.582,-133.793 281.794,-140 279.799,-146.921 279.233,-154.624 279.369,-161.833"/>
<polygon fill="black" stroke="black" points="275.88,-162.128 279.985,-171.895 282.867,-161.7 275.88,-162.128"/>
<text text-anchor="middle" x="285.294" y="-142.8" font-family="Times,serif" font-size="14.00">b</text>
</g>
<!-- o4337207304&#45;&gt;o4297148560 -->
<g id="edge18" class="edge"><title>o4337207304&#45;&gt;o4297148560</title>
<path fill="none" stroke="black" d="M291.154,-85.5951C282.509,-73.6903 270.908,-57.7149 261.235,-44.3951"/>
<polygon fill="black" stroke="black" points="263.916,-42.1301 255.208,-36.0952 258.252,-46.2433 263.916,-42.1301"/>
<text text-anchor="middle" x="280.9" y="-56.8" font-family="Times,serif" font-size="14.00">a</text>
</g>
</g>
</svg>
