<?xml version="1.0" encoding="utf-8"?>
<!-- Generator: Adobe Illustrator 25.2.3, SVG Export Plug-In . SVG Version: 6.00 Build 0)  -->
<svg version="1.1" id="Lager_1" xmlns="http://www.w3.org/2000/svg" xmlns:xlink="http://www.w3.org/1999/xlink" x="0px" y="0px"
	 viewBox="0 0 800 574" style="enable-background:new 0 0 800 574;" xml:space="preserve">
<style type="text/css">
	.st0{fill:none;stroke:#404040;stroke-width:4;stroke-miterlimit:10;}
	.st1{fill:#4ED1A1;stroke:#404040;stroke-width:4;stroke-miterlimit:10;}
	.st2{fill:#B18BE8;stroke:#404040;stroke-width:4;stroke-miterlimit:10;}
	.st3{fill:none;stroke:#CCCCCC;stroke-width:4;stroke-linecap:round;stroke-linejoin:round;stroke-dasharray:0,14.3051;}
	.st4{fill:none;stroke:#CCCCCC;stroke-width:4;stroke-linecap:round;stroke-linejoin:round;}
	.st5{fill:none;stroke:#CCCCCC;stroke-width:4;stroke-linecap:round;stroke-linejoin:round;stroke-dasharray:0,14.1689;}
	.st6{fill:none;stroke:#CCCCCC;stroke-width:4;stroke-linecap:round;stroke-linejoin:round;stroke-dasharray:0,13.9788;}
	.st7{fill:none;stroke:#CCCCCC;stroke-width:4;stroke-linecap:round;stroke-linejoin:round;stroke-dasharray:0,14.7877;}
	.st8{fill:none;stroke:#CCCCCC;stroke-width:4;stroke-linecap:round;stroke-linejoin:round;stroke-dasharray:0,14.9632;}
	.st9{fill:#B3E3FF;stroke:#404040;stroke-width:4;stroke-miterlimit:10;}
	.st10{fill:#B3E3FF;stroke:#404040;stroke-width:4;stroke-linecap:round;stroke-linejoin:round;stroke-miterlimit:10;}
	.st11{fill:#404040;}
	.st12{fill:none;stroke:#404040;stroke-width:4;stroke-linecap:round;stroke-linejoin:round;stroke-miterlimit:10;}
	.st13{fill:none;stroke:#CCCCCC;stroke-width:4;stroke-linecap:round;stroke-linejoin:round;stroke-dasharray:0,12.543;}
	.st14{fill:none;stroke:#CCCCCC;stroke-width:4;stroke-linecap:round;stroke-linejoin:round;stroke-dasharray:0,13.6844;}
	.st15{fill:none;stroke:#CCCCCC;stroke-width:4;stroke-linecap:round;stroke-linejoin:round;stroke-dasharray:0,13.7717;}
	.st16{fill:none;stroke:#CCCCCC;stroke-width:4;stroke-linecap:round;stroke-linejoin:round;stroke-dasharray:0,13.6492;}
	.st17{fill:none;stroke:#CCCCCC;stroke-width:4;stroke-linecap:round;stroke-linejoin:round;stroke-dasharray:0,13.907;}
	.st18{fill:#4CD3D6;stroke:#404040;stroke-width:4;stroke-linecap:round;stroke-linejoin:round;stroke-miterlimit:10;}
	.st19{fill:#B18BE8;stroke:#404040;stroke-width:4;stroke-linecap:round;stroke-linejoin:round;stroke-miterlimit:10;}
	.st20{fill:#FC8363;stroke:#404040;stroke-width:4;stroke-linecap:round;stroke-linejoin:round;stroke-miterlimit:10;}
	.st21{fill:#4ED1A1;stroke:#404040;stroke-width:4;stroke-linecap:round;stroke-linejoin:round;stroke-miterlimit:10;}
	.st22{fill:#4CD3D6;stroke:#404040;stroke-width:4;stroke-linejoin:round;stroke-miterlimit:10;}
	.st23{fill:#414141;}
</style>
<path class="st0" d="M424.4,459.9c0-17,13.8-30.8,30.8-30.8"/>
<path class="st0" d="M254.1,459.9c0-17-13.8-30.8-30.8-30.8 M164.5,552.1h213.9"/>
<circle class="st1" cx="315.8" cy="552.1" r="15.8"/>
<circle class="st1" cx="362.7" cy="552.1" r="15.8"/>
<circle class="st1" cx="242.5" cy="552.1" r="15.8"/>
<path class="st0" d="M776.2,429.1H179.9"/>
<circle class="st2" cx="485.2" cy="429.1" r="15.8"/>
<circle class="st2" cx="315.8" cy="429.1" r="15.8"/>
<circle class="st2" cx="776.2" cy="429.1" r="15.8"/>
<path class="st0" d="M254.1,459.9c0,17,13.8,30.8,30.8,30.8h107.9 M84.9,275c0,17,13.8,30.8,30.8,30.8H133"/>
<circle class="st1" cx="315.8" cy="490.6" r="15.8"/>
<circle class="st1" cx="362.7" cy="490.6" r="15.8"/>
<path class="st0" d="M392.8,490.6h0.9c17,0,30.8-13.8,30.8-30.8"/>
<path class="st3" d="M57.2,306.1H21.5"/>
<path class="st4" d="M776.3,306.1"/>
<path class="st5" d="M762.1,306.1H244.9"/>
<path class="st4" d="M545.5,367.6"/>
<path class="st6" d="M531.5,367.6H21.3"/>
<path class="st4" d="M776.3,367.6"/>
<path class="st7" d="M761.5,367.6h-51.8"/>
<path class="st4" d="M776.2,244.6"/>
<path class="st8" d="M761.3,244.6H679"/>
<path class="st0" d="M84.9,275.4c0-17-13.8-30.8-30.8-30.8 M211.7,275c0,17-13.8,30.8-30.8,30.8h-48 M211.7,275.4
	c0-17,13.8-30.8,30.8-30.8 M273.2,429.1c-17,0-30.8-13.8-30.8-30.8v-61.8 M242.4,336.5c0-17-13.8-30.8-30.8-30.8"/>
<circle class="st1" cx="148.7" cy="552.1" r="15.8"/>
<path class="st0" d="M645,244.6H39.2"/>
<ellipse transform="matrix(0.9999 -1.514629e-02 1.514629e-02 0.9999 -3.7021 0.384)" class="st9" cx="23.5" cy="244.6" rx="15.8" ry="15.8"/>
<circle class="st9" cx="315.8" cy="244.6" r="15.8"/>
<circle class="st9" cx="645" cy="244.6" r="15.8"/>
<path class="st10" d="M49,139.1h42.5v37.5H49V139.1z"/>
<path class="st11" d="M62.6,162.4h-1.2l-2.5-6.3h1.4l1.8,4.8l1.8-4.8h1.3L62.6,162.4z M67.3,155.1c0.5-0.8,1.4-1.4,2.6-1.4
	s2,0.5,2.6,1.4c0.6,0.8,0.8,1.9,0.8,3.1s-0.2,2.2-0.8,3.1c-0.5,0.8-1.4,1.4-2.6,1.4s-2-0.5-2.6-1.4c-0.6-0.8-0.8-1.9-0.8-3.1
	S66.7,155.9,67.3,155.1z M68.5,160.9c0.3,0.3,0.7,0.5,1.3,0.5s1-0.2,1.3-0.5c0.5-0.5,0.7-1.4,0.7-2.7s-0.2-2.2-0.7-2.7
	c-0.3-0.3-0.7-0.5-1.3-0.5s-1,0.2-1.3,0.5c-0.5,0.5-0.7,1.4-0.7,2.7S68,160.3,68.5,160.9z M75.8,160.6c0.5,0,0.9,0.4,0.9,0.9
	s-0.4,0.9-0.9,0.9s-0.9-0.4-0.9-0.9S75.3,160.6,75.8,160.6z M79.7,162.4v-5.9h-2v-0.9c1.2,0,2-0.7,2.2-1.6H81v8.4
	C81,162.4,79.7,162.4,79.7,162.4z"/>
<path class="st12" d="M70.3,210.7v-17.6 M78.5,204.2l-8.2,8.2l-8.1-8.2"/>
<path class="st10" d="M294.6,139.1h42.5v37.5h-42.5V139.1z"/>
<path class="st11" d="M306.5,162.4h-1.2l-2.5-6.3h1.4l1.8,4.8l1.8-4.8h1.3L306.5,162.4L306.5,162.4z M311.2,155.1
	c0.5-0.8,1.4-1.4,2.6-1.4s2,0.5,2.6,1.4c0.6,0.8,0.8,1.9,0.8,3.1s-0.2,2.2-0.8,3.1c-0.5,0.8-1.4,1.4-2.6,1.4s-2-0.5-2.6-1.4
	c-0.6-0.8-0.8-1.9-0.8-3.1S310.6,155.9,311.2,155.1z M312.4,160.9c0.3,0.3,0.7,0.5,1.3,0.5s1-0.2,1.3-0.5c0.5-0.5,0.7-1.4,0.7-2.7
	s-0.2-2.2-0.7-2.7c-0.3-0.3-0.7-0.5-1.3-0.5s-1,0.2-1.3,0.5c-0.5,0.5-0.7,1.4-0.7,2.7S311.9,160.3,312.4,160.9z M319.7,160.6
	c0.5,0,0.9,0.4,0.9,0.9s-0.4,0.9-0.9,0.9s-0.9-0.4-0.9-0.9S319.2,160.6,319.7,160.6z M322.7,156.8v-0.3c0-1.4,1.1-2.7,2.9-2.7
	s2.8,1.2,2.8,2.6c0,1.1-0.6,2-1.6,2.6l-1.7,1.1c-0.5,0.3-0.9,0.7-1,1.2h4.3v1.2h-5.9c0-1.4,0.6-2.4,2-3.4l1.4-0.9
	c0.8-0.5,1.2-1.1,1.2-1.8c0-0.8-0.5-1.5-1.6-1.5s-1.6,0.8-1.6,1.7v0.4L322.7,156.8L322.7,156.8z"/>
<path class="st12" d="M315.8,210.7v-17.6 M324,204.2l-8.2,8.2l-8.1-8.2"/>
<path class="st10" d="M623.8,139.1h42.5v37.5h-42.5V139.1z"/>
<path class="st11" d="M636.8,162.4h-1.2l-2.5-6.3h1.4l1.8,4.8l1.8-4.8h1.3L636.8,162.4z M642.4,162.4v-5.9h-2v-0.9
	c1.2,0,2-0.7,2.2-1.6h1.1v8.4H642.4z M647,160.6c0.5,0,0.9,0.4,0.9,0.9s-0.4,0.9-0.9,0.9s-0.9-0.4-0.9-0.9S646.5,160.6,647,160.6z
	 M650.6,155.1c0.5-0.8,1.4-1.4,2.6-1.4s2,0.5,2.6,1.4c0.6,0.8,0.8,1.9,0.8,3.1s-0.2,2.2-0.8,3.1c-0.5,0.8-1.4,1.4-2.6,1.4
	s-2-0.5-2.6-1.4c-0.6-0.8-0.8-1.9-0.8-3.1S650.1,155.9,650.6,155.1z M651.9,160.9c0.3,0.3,0.7,0.5,1.3,0.5s1-0.2,1.3-0.5
	c0.5-0.5,0.7-1.4,0.7-2.7s-0.2-2.2-0.7-2.7c-0.3-0.3-0.7-0.5-1.3-0.5s-1,0.2-1.3,0.5c-0.5,0.5-0.7,1.4-0.7,2.7
	S651.4,160.3,651.9,160.9z"/>
<path class="st12" d="M645,210.7v-17.6 M653.2,204.2l-8.2,8.2l-8.1-8.2"/>
<path class="st13" d="M64.5,429.1H20.6"/>
<path class="st4" d="M260.6,490.6"/>
<path class="st14" d="M246.9,490.6H21.2"/>
<path class="st4" d="M776.3,490.6"/>
<path class="st15" d="M762.5,490.6H425.1"/>
<path class="st4" d="M123.5,552.1"/>
<path class="st16" d="M109.9,552.1H21.1"/>
<path class="st4" d="M776.3,552.1"/>
<path class="st17" d="M762.3,552.1H393.8"/>
<path class="st18" d="M283.5,5.2h96.2v50h-96.2V5.2z"/>
<path class="st11" d="M308.8,31.8h-1.6v4.3h-1.5V25.6h4c2,0,3.3,1.4,3.3,3.2c0,1.5-1,2.7-2.6,3l2.5,4.5h-1.7L308.8,31.8L308.8,31.8z
	 M309.5,30.5c1.2,0,2-0.7,2-1.8s-0.8-1.8-2-1.8h-2.2v3.6C307.3,30.5,309.5,30.5,309.5,30.5z M321.6,34.1c-0.4,1.3-1.6,2.3-3.2,2.3
	c-1.9,0-3.6-1.4-3.6-3.9c0-2.3,1.6-3.8,3.5-3.8c2.2,0,3.5,1.5,3.5,3.8V33h-5.4c0,1.3,1,2.2,2.2,2.2s1.8-0.6,2-1.5L321.6,34.1z
	 M320.2,31.8c0-1-0.7-1.8-2-1.8c-1.2,0-1.9,0.9-2,1.8H320.2z M324.2,36.2V25.3h1.4v10.9H324.2z M335.1,34.1
	c-0.4,1.3-1.6,2.3-3.2,2.3c-1.9,0-3.6-1.4-3.6-3.9c0-2.3,1.6-3.8,3.5-3.8c2.2,0,3.5,1.5,3.5,3.8V33h-5.4c0,1.3,1,2.2,2.2,2.2
	s1.8-0.6,2-1.5L335.1,34.1z M333.7,31.8c0-1-0.7-1.8-2-1.8c-1.2,0-1.9,0.9-2,1.8H333.7z M339.4,32.1l2-0.3c0.4-0.1,0.6-0.3,0.6-0.5
	c0-0.7-0.5-1.3-1.6-1.3c-1,0-1.5,0.6-1.6,1.5l-1.4-0.3c0.2-1.4,1.4-2.3,3-2.3c2.2,0,3,1.2,3,2.6V35c0,0.6,0.1,1,0.1,1.2H342
	c0-0.2-0.1-0.5-0.1-1c-0.3,0.5-1,1.2-2.3,1.2c-1.5,0-2.4-1-2.4-2.2S338.2,32.2,339.4,32.1L339.4,32.1z M341.9,33.1v-0.3l-2.2,0.3
	c-0.6,0.1-1,0.4-1,1.1c0,0.5,0.5,1,1.2,1C341,35.2,341.9,34.7,341.9,33.1z M346.9,33.9c0.1,0.8,0.7,1.3,1.7,1.3c0.8,0,1.2-0.5,1.2-1
	c0-0.4-0.3-0.8-0.9-0.9l-1.2-0.3c-1.1-0.2-1.8-1-1.8-2c0-1.2,1.2-2.3,2.6-2.3c2,0,2.6,1.3,2.7,1.9l-1.2,0.5
	c-0.1-0.4-0.4-1.2-1.5-1.2c-0.7,0-1.2,0.5-1.2,1c0,0.4,0.3,0.8,0.8,0.9l1.2,0.3c1.3,0.3,2,1.1,2,2.1s-0.9,2.2-2.6,2.2
	c-2,0-2.8-1.3-2.9-2.1L346.9,33.9L346.9,33.9z M360,34.1c-0.4,1.3-1.6,2.3-3.2,2.3c-1.9,0-3.6-1.4-3.6-3.9c0-2.3,1.6-3.8,3.5-3.8
	c2.2,0,3.5,1.5,3.5,3.8V33h-5.4c0,1.3,1,2.2,2.2,2.2s1.8-0.6,2-1.5L360,34.1z M358.6,31.8c0-1-0.7-1.8-2-1.8c-1.2,0-1.9,0.9-2,1.8
	H358.6z"/>
<path class="st19" d="M421.3,5.2h96.2v50h-96.2V5.2z"/>
<path class="st11" d="M441.7,36.2V25.6h3.7c2.7,0,5.1,1.8,5.1,5.3s-2.4,5.3-5.1,5.3H441.7z M445.3,34.9c2,0,3.6-1.3,3.6-4
	s-1.6-4-3.6-4h-2.2v8H445.3z M459.3,34.1c-0.4,1.3-1.6,2.3-3.2,2.3c-1.9,0-3.6-1.4-3.6-3.9c0-2.3,1.6-3.8,3.4-3.8
	c2.2,0,3.5,1.5,3.5,3.8V33H454c0,1.3,1,2.2,2.2,2.2s1.8-0.6,2-1.5L459.3,34.1z M457.9,31.8c0-1-0.7-1.8-2-1.8c-1.2,0-1.9,0.9-2,1.8
	H457.9z M465.4,36.2H464l-3-7.2h1.6l2.1,5.6l2.1-5.6h1.5L465.4,36.2L465.4,36.2z M476.1,34.1c-0.4,1.3-1.6,2.3-3.2,2.3
	c-1.9,0-3.6-1.4-3.6-3.9c0-2.3,1.6-3.8,3.5-3.8c2.2,0,3.5,1.5,3.5,3.8V33h-5.4c0,1.3,1,2.2,2.2,2.2s1.8-0.6,2-1.5L476.1,34.1z
	 M474.7,31.8c0-1-0.7-1.8-2-1.8c-1.2,0-1.9,0.9-2,1.8H474.7z M478.7,36.2V25.3h1.4v10.9H478.7z M490.1,32.6c0,2.2-1.5,3.8-3.7,3.8
	s-3.7-1.6-3.7-3.8s1.5-3.8,3.7-3.8C488.5,28.7,490.1,30.4,490.1,32.6z M488.6,32.6c0-1.7-1-2.6-2.2-2.6s-2.2,0.9-2.2,2.6
	s1,2.6,2.2,2.6S488.6,34.2,488.6,32.6z M492.6,39V29h1.4v1.1c0.4-0.7,1.2-1.3,2.4-1.3c2.2,0,3.3,1.7,3.3,3.8s-1.2,3.8-3.4,3.8
	c-1.1,0-2-0.5-2.3-1.2V39H492.6z M496.1,30.1c-1.3,0-2.1,1.1-2.1,2.5c0,1.5,0.9,2.6,2.1,2.6c1.3,0,2.1-1.1,2.1-2.6
	C498.3,31.1,497.5,30.1,496.1,30.1z"/>
<path class="st20" d="M145.8,5.2H242v50h-96.2V5.2z"/>
<path class="st11" d="M180.9,36.2v-4.7h-5.4v4.7H174V25.6h1.5v4.5h5.4v-4.5h1.5v10.6H180.9z M192.4,32.6c0,2.2-1.5,3.8-3.7,3.8
	s-3.7-1.6-3.7-3.8s1.5-3.8,3.7-3.8C190.9,28.7,192.4,30.4,192.4,32.6z M191,32.6c0-1.7-1-2.6-2.2-2.6s-2.2,0.9-2.2,2.6
	s1,2.6,2.2,2.6S191,34.2,191,32.6z M196.8,29h1.6v1.3h-1.6V34c0,0.7,0.3,1,1,1c0.2,0,0.4,0,0.6-0.1v1.2c-0.1,0-0.5,0.1-1,0.1
	c-1.2,0-2-0.8-2-2.1v-4H194V29h0.4c0.8,0,1.1-0.5,1.1-1.1v-1.2h1.3L196.8,29L196.8,29z M204.6,25.4v1.3c-0.1,0-0.3-0.1-0.6-0.1
	c-0.5,0-1.1,0.2-1.1,1.2V29h4.8v7.2h-1.4v-5.9h-3.4v5.9h-1.5v-5.9h-1.3V29h1.3v-1.2c0-1.6,1.1-2.5,2.4-2.5
	C204.2,25.3,204.5,25.4,204.6,25.4z M206.9,25.2c0.6,0,1,0.4,1,1s-0.5,1-1,1c-0.6,0-1-0.5-1-1C205.9,25.6,206.4,25.2,206.9,25.2z
	 M212.4,32.5l-2.6-3.5h1.7l1.8,2.5L215,29h1.7l-2.6,3.5c0.4,0.6,2.2,3.1,2.7,3.7h-1.7l-1.9-2.7l-1.8,2.7h-1.7L212.4,32.5L212.4,32.5
	z"/>
<path class="st21" d="M559.1,5.2h96.2v50h-96.2V5.2z"/>
<path class="st11" d="M581.6,35.7V25.1h6.5v1.4h-5v3.4h4.5v1.4h-4.5v4.5L581.6,35.7L581.6,35.7z M596.3,33.6
	c-0.4,1.3-1.6,2.3-3.2,2.3c-1.9,0-3.6-1.4-3.6-3.9c0-2.3,1.6-3.8,3.5-3.8c2.2,0,3.5,1.5,3.5,3.8v0.5h-5.4c0,1.3,1,2.2,2.2,2.2
	s1.8-0.6,2-1.5L596.3,33.6z M594.8,31.3c0-1-0.7-1.8-2-1.8c-1.2,0-1.9,0.9-2,1.8H594.8z M600.6,31.6l2-0.3c0.4-0.1,0.6-0.3,0.6-0.5
	c0-0.7-0.5-1.3-1.6-1.3c-1,0-1.5,0.6-1.6,1.5l-1.3-0.3c0.2-1.4,1.4-2.3,3-2.3c2.2,0,3,1.2,3,2.6v3.6c0,0.6,0.1,1,0.1,1.2h-1.4
	c0-0.2-0.1-0.5-0.1-1c-0.3,0.5-1,1.2-2.3,1.2c-1.5,0-2.4-1-2.4-2.2C598.4,32.5,599.3,31.7,600.6,31.6z M603.1,32.6v-0.3l-2.2,0.3
	c-0.6,0.1-1,0.4-1,1.1c0,0.5,0.5,1,1.2,1C602.2,34.7,603.1,34.2,603.1,32.6z M609.3,28.5h1.6v1.3h-1.6v3.8c0,0.7,0.3,1,1,1
	c0.2,0,0.4,0,0.6-0.1v1.2c-0.1,0-0.5,0.1-1,0.1c-1.2,0-2-0.8-2-2.1v-4h-1.4v-1.3h0.4c0.8,0,1.1-0.5,1.1-1.1v-1.2h1.3L609.3,28.5
	L609.3,28.5z M616.1,35.9c-1.7,0-2.7-1.3-2.7-2.9v-4.5h1.4v4.3c0,1,0.5,1.9,1.6,1.9s1.7-0.8,1.7-1.8v-4.3h1.4v5.9
	c0,0.6,0,1.1,0.1,1.3h-1.3c0-0.2-0.1-0.6-0.1-0.9C617.9,35.6,617,35.9,616.1,35.9L616.1,35.9z M626.8,29.9h-0.6c-1.2,0-2,0.6-2,2.2
	v3.6h-1.4v-7.2h1.4v1.3c0.5-1.1,1.4-1.4,2.2-1.4h0.5v1.5L626.8,29.9z M635.2,33.6c-0.4,1.3-1.6,2.3-3.2,2.3c-1.9,0-3.6-1.4-3.6-3.9
	c0-2.3,1.6-3.8,3.5-3.8c2.2,0,3.5,1.5,3.5,3.8v0.5H630c0,1.3,1,2.2,2.2,2.2s1.8-0.6,2-1.5L635.2,33.6z M633.8,31.3
	c0-1-0.7-1.8-2-1.8c-1.2,0-1.9,0.9-2,1.8H633.8z"/>
<path class="st21" d="M696.8,5.2H793v50h-96.2V5.2z"/>
<path class="st11" d="M719.4,35.7V25.1h6.5v1.4h-5v3.4h4.5v1.4h-4.5v4.5L719.4,35.7L719.4,35.7z M734,33.6c-0.4,1.3-1.6,2.3-3.2,2.3
	c-1.9,0-3.6-1.4-3.6-3.9c0-2.3,1.6-3.8,3.4-3.8c2.2,0,3.5,1.5,3.5,3.8v0.5h-5.4c0,1.3,1,2.2,2.2,2.2s1.8-0.6,2-1.5L734,33.6z
	 M732.6,31.3c0-1-0.7-1.8-2-1.8c-1.2,0-1.9,0.9-2,1.8H732.6z M738.4,31.6l1.9-0.3c0.4-0.1,0.6-0.3,0.6-0.5c0-0.7-0.5-1.3-1.6-1.3
	c-1,0-1.5,0.6-1.6,1.5l-1.4-0.3c0.2-1.4,1.4-2.3,3-2.3c2.2,0,3,1.2,3,2.6v3.6c0,0.6,0.1,1,0.1,1.2H741c0-0.2-0.1-0.5-0.1-1
	c-0.3,0.5-1,1.2-2.3,1.2c-1.5,0-2.4-1-2.4-2.2C736.2,32.5,737.1,31.7,738.4,31.6z M740.9,32.6v-0.3l-2.2,0.3c-0.6,0.1-1,0.4-1,1.1
	c0,0.5,0.4,1,1.2,1C739.9,34.7,740.9,34.2,740.9,32.6z M747.1,28.5h1.6v1.3h-1.6v3.8c0,0.7,0.3,1,1,1c0.2,0,0.4,0,0.6-0.1v1.2
	c-0.1,0-0.5,0.1-1,0.1c-1.2,0-2-0.8-2-2.1v-4h-1.4v-1.3h0.4c0.8,0,1.1-0.5,1.1-1.1v-1.2h1.3L747.1,28.5L747.1,28.5z M753.9,35.9
	c-1.7,0-2.7-1.3-2.7-2.9v-4.5h1.4v4.3c0,1,0.5,1.9,1.6,1.9s1.7-0.8,1.7-1.8v-4.3h1.4v5.9c0,0.6,0,1.1,0.1,1.3h-1.3
	c0-0.2-0.1-0.6-0.1-0.9C755.7,35.6,754.8,35.9,753.9,35.9L753.9,35.9z M764.5,29.9h-0.6c-1.2,0-2,0.6-2,2.2v3.6h-1.4v-7.2h1.4v1.3
	c0.5-1.1,1.4-1.4,2.2-1.4h0.5v1.5L764.5,29.9z M773,33.6c-0.4,1.3-1.6,2.3-3.2,2.3c-1.9,0-3.6-1.4-3.6-3.9c0-2.3,1.6-3.8,3.5-3.8
	c2.2,0,3.5,1.5,3.5,3.8v0.5h-5.4c0,1.3,1,2.2,2.2,2.2s1.8-0.6,2-1.5L773,33.6z M771.6,31.3c0-1-0.7-1.8-2-1.8c-1.2,0-1.9,0.9-2,1.8
	H771.6z"/>
<path class="st0" d="M84.9,275v123.4c0,17,13.8,30.8,30.8,30.8h95.7"/>
<circle class="st2" cx="195.6" cy="429.1" r="15.7"/>
<circle class="st2" cx="148.7" cy="429.1" r="15.8"/>
<circle class="st20" cx="148.7" cy="306.1" r="15.8"/>
<path class="st0" d="M536.5,398.4c0,17-13.8,30.8-30.8,30.8 M706.7,398.4c0,17,13.8,30.8,30.8,30.8h23 M568.1,367.6h-0.9
	c-17,0-30.8,13.8-30.8,30.8 M706.7,398.4c0-17-13.8-30.8-30.8-30.8H568.1"/>
<circle class="st22" cx="645" cy="367.6" r="15.8"/>
<circle class="st22" cx="598.2" cy="367.6" r="15.8"/>
<path class="st0" d="M148.7,444.9v91.5 M164.5,305.7h47.2 M645,351.9v-91.5"/>
<g>
	<path class="st10" d="M8,5.2h96.2v50H8V5.2z"/>
	<g>
		<path class="st23" d="M40.9,36.3v-10h2l2.4,7.1c0.2,0.7,0.4,1.2,0.5,1.5c0.1-0.4,0.3-0.9,0.5-1.6l2.4-7h1.8v10h-1.3v-8.4l-2.9,8.4
			h-1.2l-2.9-8.5v8.5H40.9z"/>
		<path class="st23" d="M57.9,35.4c-0.5,0.4-0.9,0.7-1.3,0.8c-0.4,0.2-0.9,0.2-1.4,0.2c-0.8,0-1.4-0.2-1.8-0.6s-0.6-0.9-0.6-1.5
			c0-0.4,0.1-0.7,0.2-1c0.2-0.3,0.4-0.5,0.6-0.7c0.3-0.2,0.6-0.3,0.9-0.4c0.2-0.1,0.6-0.1,1.1-0.2c1-0.1,1.7-0.3,2.2-0.4
			c0-0.2,0-0.3,0-0.3c0-0.5-0.1-0.9-0.3-1.1c-0.3-0.3-0.8-0.4-1.4-0.4s-1,0.1-1.3,0.3c-0.3,0.2-0.5,0.6-0.6,1.1L53,31
			c0.1-0.5,0.3-0.9,0.5-1.2c0.3-0.3,0.6-0.6,1.1-0.7c0.5-0.2,1-0.3,1.6-0.3s1.1,0.1,1.5,0.2s0.7,0.3,0.9,0.6
			c0.2,0.2,0.3,0.5,0.4,0.8c0,0.2,0.1,0.6,0.1,1.1v1.6c0,1.1,0,1.9,0.1,2.2c0.1,0.3,0.2,0.6,0.3,0.9h-1.3
			C58,36.1,57.9,35.8,57.9,35.4z M57.8,32.7c-0.4,0.2-1.1,0.3-2,0.5c-0.5,0.1-0.9,0.2-1.1,0.2s-0.4,0.2-0.5,0.4S54,34.2,54,34.4
			c0,0.3,0.1,0.6,0.4,0.8c0.2,0.2,0.6,0.3,1.1,0.3s0.9-0.1,1.3-0.3c0.4-0.2,0.6-0.5,0.8-0.9c0.1-0.3,0.2-0.7,0.2-1.2L57.8,32.7
			L57.8,32.7z"/>
		<path class="st23" d="M61.6,27.7v-1.4h1.2v1.4H61.6z M61.6,36.3V29h1.2v7.3H61.6z"/>
		<path class="st23" d="M65.4,36.3V29h1.1v1c0.5-0.8,1.3-1.2,2.3-1.2c0.4,0,0.8,0.1,1.2,0.2c0.4,0.2,0.6,0.4,0.8,0.6
			c0.2,0.2,0.3,0.6,0.4,0.9c0,0.2,0.1,0.6,0.1,1.2v4.5h-1.2v-4.4c0-0.5,0-0.9-0.1-1.1s-0.3-0.4-0.5-0.6c-0.2-0.1-0.5-0.2-0.9-0.2
			c-0.5,0-1,0.2-1.4,0.5s-0.6,1-0.6,1.9v4H65.4z"/>
	</g>
</g>
</svg>
